<?xml version="1.0" standalone="no"?>
<!DOCTYPE svg PUBLIC "-//W3C//DTD SVG 20010904//EN"
 "http://www.w3.org/TR/2001/REC-SVG-20010904/DTD/svg10.dtd">
<svg version="1.0" xmlns="http://www.w3.org/2000/svg"
 width="512.000000pt" height="512.000000pt" viewBox="0 0 512.000000 512.000000"
 preserveAspectRatio="xMidYMid meet">

<g transform="translate(0.000000,512.000000) scale(0.100000,-0.100000)"
fill="#000000" stroke="none">
<path d="M2370 5114 c-19 -2 -78 -9 -130 -15 -298 -34 -649 -147 -914 -295
-652 -364 -1121 -996 -1269 -1709 -43 -206 -52 -297 -51 -540 0 -277 13 -380
50 -412 31 -28 64 -29 95 -5 27 23 27 34 10 237 -38 426 47 858 245 1255 359
717 1017 1192 1824 1316 159 25 500 25 660 1 516 -79 973 -303 1348 -661 325
-311 583 -779 675 -1221 41 -194 51 -298 51 -505 0 -387 -75 -711 -243 -1055
-80 -163 -242 -420 -254 -404 -2 2 -24 38 -50 79 -60 97 -167 222 -259 301
-217 186 -466 294 -770 334 l-48 6 0 131 0 130 60 80 c34 44 84 128 112 187
29 58 56 109 61 112 6 4 27 10 48 13 52 8 177 95 237 164 124 143 183 271 190
409 4 85 2 97 -22 148 -53 107 -166 175 -291 175 -35 0 -75 -4 -89 -10 l-25
-9 -3 402 -3 402 -33 67 c-27 55 -58 91 -180 209 -81 78 -170 157 -198 175
-82 53 -165 76 -269 76 -98 0 -20 23 -847 -257 -86 -29 -185 -68 -220 -87
-123 -65 -244 -212 -289 -353 -9 -27 -15 -137 -18 -335 -5 -256 -8 -294 -21
-291 -8 2 -46 6 -85 9 -90 5 -165 -22 -233 -83 -115 -103 -129 -247 -42 -432
90 -193 237 -340 381 -380 54 -15 58 -18 74 -62 28 -74 92 -184 150 -261 l55
-70 0 -130 0 -130 -36 0 c-138 0 -404 -69 -551 -143 -201 -102 -414 -289 -531
-465 -33 -52 -63 -99 -65 -105 -5 -14 -16 -1 -86 98 -110 158 -222 380 -287
569 -50 145 -85 175 -148 125 -36 -28 -34 -64 10 -191 77 -222 222 -490 381
-701 97 -130 359 -392 485 -486 734 -545 1649 -670 2497 -339 633 247 1182
796 1429 1429 340 872 195 1834 -385 2554 -409 507 -974 829 -1633 930 -100
15 -472 28 -550 19z m717 -617 c63 -33 318 -270 353 -329 24 -42 25 -48 28
-272 3 -218 3 -228 -15 -220 -10 5 -260 10 -556 12 l-538 3 -30 -31 c-25 -25
-30 -36 -24 -58 3 -15 15 -36 26 -47 19 -19 36 -20 554 -25 l534 -5 23 -23
c22 -22 23 -29 28 -268 5 -243 5 -246 29 -265 30 -25 62 -24 95 2 25 19 26 25
26 109 0 88 0 89 31 111 101 71 249 -4 249 -127 0 -119 -122 -319 -246 -405
l-44 -30 0 32 c0 69 -82 106 -127 57 -12 -13 -26 -50 -33 -83 -56 -277 -198
-464 -510 -672 -215 -144 -238 -155 -327 -161 -112 -7 -146 7 -363 152 -276
186 -383 300 -465 494 -68 162 -68 166 -73 615 l-3 407 30 30 29 30 132 0 c98
0 138 4 160 15 54 28 52 103 -2 131 -26 13 -55 15 -172 12 -78 -3 -149 -8
-158 -12 -17 -7 -18 1 -18 95 0 57 6 127 14 155 30 115 113 223 213 277 28 15
248 95 489 177 l439 150 85 -3 c68 -3 95 -9 137 -30z m-1572 -1297 l32 -20 6
-247 c4 -137 10 -261 13 -277 l7 -29 -32 19 c-18 10 -64 51 -101 90 -92 97
-153 218 -158 313 -2 53 1 72 18 99 40 64 151 91 215 52z m659 -1379 c94 -63
193 -124 220 -137 118 -54 275 -53 393 1 29 13 129 76 223 139 l170 115 0
-153 c0 -224 -30 -315 -140 -427 -60 -61 -122 -97 -209 -123 -84 -25 -417 -23
-500 3 -147 46 -271 171 -316 321 -18 61 -35 386 -19 379 5 -2 85 -55 178
-118z"/>
<path d="M2084 3116 c-44 -20 -64 -52 -64 -107 0 -81 71 -131 149 -106 40 14
81 67 81 106 0 39 -36 90 -75 107 -42 17 -51 17 -91 0z"/>
<path d="M2984 3115 c-62 -32 -84 -117 -42 -170 68 -86 193 -51 205 58 5 40 2
48 -28 81 -40 44 -88 55 -135 31z"/>
<path d="M2260 2518 c-28 -30 -25 -68 8 -114 91 -125 273 -183 429 -136 112
34 233 137 233 199 0 36 -38 73 -75 73 -26 0 -44 -11 -88 -54 -54 -54 -123
-86 -182 -86 -59 0 -130 33 -185 86 -65 61 -104 71 -140 32z"/>
</g>
</svg>
